<svg id="Capa_1" enable-background="new 0 0 512 512" height="512" viewBox="0 0 512 512" width="512" xmlns="http://www.w3.org/2000/svg"><g><path d="m460 466.885v36.102c0 4.978-4.035 9.013-9.013 9.013h-389.974c-4.978 0-9.013-4.035-9.013-9.013v-36.205c.01-6.44 1.452-12.95 4.162-18.674.799-1.713 1.712-3.365 2.716-4.956 5.3-8.342 13.388-14.867 23.209-18.141l16.874-5.633 96.224-32.104c9.688-3.232 16.222-12.3 16.222-22.513v-53.868h89.186v54.34c0 10.24 6.561 19.331 16.279 22.542l64.931 21.434v.01l31.144 10.281 16.843 5.571c17.786 5.869 29.872 22.347 30.2 41.021.01.269.01.526.01.793z" fill="#b6c4cf"/><path d="m459.99 466.095c-.328-18.674-12.415-35.152-30.2-41.021l-16.843-5.571-31.144-10.281s0 0 0-.01l-64.931-21.434c-9.718-3.211-16.279-12.302-16.279-22.542v-54.34h-22.553v54.34c0 10.24 6.561 19.331 16.279 22.542l87.802 28.996 25.116 8.301c17.786 5.869 29.872 22.347 30.2 41.021.01.267.01.523.01.79v45.114h13.539c4.978 0 9.013-4.035 9.013-9.013v-36.102c.001-.267.001-.524-.009-.79z" fill="#9facba"/><path d="m382.09 414.012c0 9.86-3.578 19.31-10.149 28.063-3.629 4.843-8.18 9.47-13.542 13.821-11.717 9.542-27.309 17.812-45.711 24.297-27.473 9.686-61.22 15.391-97.694 15.391-71.246 0-132.088-21.762-156.116-52.431 5.3-8.342 13.388-14.867 23.209-18.141l16.874-5.633 96.229-32.105c9.687-3.232 16.217-12.302 16.217-22.512v-53.868h89.186v54.34c0 10.24 6.561 19.331 16.279 22.542l64.931 21.434v.01c.195 1.591.287 3.181.287 4.792z" fill="#9facba"/><path d="m423.095 391.439c0 9.86-3.578 19.31-10.149 28.063-11.574 15.421-32.425 28.668-59.253 38.118-27.473 9.686-61.22 15.391-97.694 15.391-72.179 0-133.676-22.337-157.039-53.632-6.51-8.711-10.057-18.12-10.057-27.939 0-12.887 6.12-25.077 17.027-35.912 9.042-8.988 13.747-21.383 13.727-34.147v-184.915c0-42.745 19.631-80.894 50.375-105.919 23.568-19.188 53.667-30.659 86.45-30.546 75.357.257 135.86 62.527 135.86 137.942v183.437c-.021 12.764 4.685 25.159 13.727 34.147 10.907 10.835 17.026 23.025 17.026 35.912z" fill="#6b7680"/><path d="m412.947 419.502c-10.887 14.508-29.985 27.088-54.547 36.394-1.548.595-3.116 1.159-4.706 1.724-27.473 9.686-61.22 15.391-97.694 15.391-72.179 0-133.676-22.337-157.039-53.632l96.229-32.105c9.687-3.232 16.217-12.302 16.217-22.512v-53.868h89.186v54.34c0 10.24 6.561 19.331 16.279 22.542l64.931 21.434v.01z" fill="#6b7680"/><g><path d="m245.205 29.757c75.353.261 135.86 62.523 135.86 137.945v183.208.224c-.021 12.761 4.68 25.163 13.727 34.153 10.834 10.767 16.944 22.87 17.02 35.668 7.282-9.154 11.283-19.106 11.283-29.516 0-12.886-6.125-25.073-17.027-35.907-9.047-8.991-13.748-21.393-13.727-34.153 0-.075 0-.149 0-.224v-183.208c0-75.422-60.507-137.684-135.86-137.945-64.074-.222-117.905 43.8-132.754 103.277 22.801-43.821 68.659-73.705 121.478-73.522z" fill="#525e66"/></g><path d="m357.487 174.778v55.735c0 56.104-45.433 101.579-101.487 101.579s-101.487-45.475-101.487-101.579v-55.735c0-7.316.769-14.447 2.245-21.311 9.78-45.875 50.498-80.268 99.242-80.268 28.027 0 53.399 11.369 71.759 29.755 13.276 13.288 22.891 30.238 27.197 49.21 1.66 7.275 2.531 14.837 2.531 22.614z" fill="#ffcebf"/><path d="m254.975 128.17c38.785 0 73.895 15.732 99.303 41.177 1.079 1.08 2.137 2.18 3.18 3.294-.145-7.026-.994-13.871-2.502-20.477-4.306-18.972-13.921-35.922-27.197-49.21-18.36-18.386-43.732-29.755-71.759-29.755-48.745 0-89.463 34.393-99.242 80.268-1.181 5.493-1.901 11.16-2.145 16.952 25.492-26.069 61.037-42.249 100.362-42.249z" fill="#ffb09e"/><g><path d="m195.514 192.385c-1.737 0-3.483-.585-4.92-1.786-3.261-2.722-3.7-7.575-.98-10.839 2.027-2.432 9.6-10.41 21.96-10.967 14.252-.638 23.066 9.012 24.692 10.954 2.727 3.258 2.3 8.111-.956 10.841-3.255 2.729-8.104 2.301-10.831-.957-.497-.593-5.04-5.762-12.212-5.463-6.233.282-10.127 4.589-10.844 5.45-1.522 1.825-3.708 2.767-5.909 2.767z" fill="#fe99a0"/></g><g><path d="m284.7 192.385c-1.737 0-3.483-.585-4.92-1.786-3.261-2.722-3.7-7.575-.98-10.839 2.027-2.432 9.6-10.41 21.96-10.967 14.232-.638 23.066 9.012 24.692 10.954 2.727 3.258 2.3 8.111-.956 10.841-3.256 2.729-8.104 2.301-10.831-.957-.497-.593-5.055-5.762-12.212-5.463-6.233.282-10.127 4.589-10.844 5.45-1.522 1.825-3.708 2.767-5.909 2.767z" fill="#fe99a0"/></g><g><path d="m256 283.704c-20.971 0-33.458-14.388-35.747-17.273-2.642-3.327-2.089-8.167 1.235-10.812 3.323-2.645 8.16-2.091 10.802 1.236.932 1.172 9.508 11.457 23.71 11.457s22.778-10.285 23.71-11.457c2.641-3.329 7.479-3.882 10.802-1.236 3.325 2.644 3.877 7.485 1.235 10.812-2.289 2.885-14.776 17.273-35.747 17.273z" fill="#fe99a0"/></g><path d="m354.956 152.164c-25.341-24.933-60.093-40.324-98.443-40.324-39.006 0-74.301 15.924-99.755 41.627 9.78-45.875 50.498-80.268 99.242-80.268 28.027 0 53.399 11.369 71.759 29.755 13.275 13.288 22.891 30.238 27.197 49.21z" fill="#b6c4cf"/><g><path d="m229.411 415.358c-8.033 0-16.938-.993-26.291-3.7-14.43-4.178-27.918-11.89-39.004-22.302-3.096-2.909-3.252-7.779-.346-10.878 2.905-3.098 7.771-3.255 10.868-.347 9.322 8.755 20.649 15.236 32.755 18.74 20.677 5.987 38.801 1.975 47.762-.95 4.032-1.318 8.376.891 9.693 4.932 1.315 4.04-.89 8.384-4.927 9.701-6.601 2.155-17.391 4.804-30.51 4.804z" fill="#525e66"/></g></g></svg>