<svg xmlns="http://www.w3.org/2000/svg" width="21.186" height="21.187" viewBox="0 0 21.186 21.187"><path d="M7.764,0H1.809A1.811,1.811,0,0,0,0,1.809V7.764A1.811,1.811,0,0,0,1.809,9.573H7.764A1.811,1.811,0,0,0,9.573,7.764V1.809A1.811,1.811,0,0,0,7.764,0Z" fill="#707070"/><path d="M35.173,0H29.217a1.811,1.811,0,0,0-1.809,1.809V7.764a1.811,1.811,0,0,0,1.809,1.809h5.955a1.811,1.811,0,0,0,1.809-1.809V1.809A1.811,1.811,0,0,0,35.173,0Z" transform="translate(-15.795)" fill="#707070"/><path d="M7.764,27.409H1.809A1.811,1.811,0,0,0,0,29.217v5.955a1.811,1.811,0,0,0,1.809,1.809H7.764a1.811,1.811,0,0,0,1.809-1.809V29.217A1.811,1.811,0,0,0,7.764,27.409Z" transform="translate(0 -15.795)" fill="#707070"/><path d="M35.173,27.409H29.217a1.811,1.811,0,0,0-1.809,1.809v5.955a1.811,1.811,0,0,0,1.809,1.809h5.955a1.811,1.811,0,0,0,1.809-1.809V29.217A1.811,1.811,0,0,0,35.173,27.409Z" transform="translate(-15.795 -15.795)" fill="#707070"/></svg>