<svg xmlns="http://www.w3.org/2000/svg" width="13.65" height="15.6" viewBox="0 0 13.65 15.6"><path d="M9.75,13.65v1.219a.731.731,0,0,1-.731.731H.731A.731.731,0,0,1,0,14.869V3.656a.731.731,0,0,1,.731-.731H2.925v9.019A1.708,1.708,0,0,0,4.631,13.65Zm0-10.481V0H4.631A.731.731,0,0,0,3.9.731V11.944a.731.731,0,0,0,.731.731h8.287a.731.731,0,0,0,.731-.731V3.9H10.481A.733.733,0,0,1,9.75,3.169Zm3.686-.945L11.427.214A.731.731,0,0,0,10.91,0h-.185V2.925H13.65V2.74a.731.731,0,0,0-.214-.517Z" fill="#818181"/></svg>