<svg xmlns="http://www.w3.org/2000/svg" width="16.794" height="16.781" viewBox="0 0 16.794 16.781"><path d="M14.864,2.411a1.119,1.119,0,0,0-.794.318L12.88,3.92a.561.561,0,0,0-.794,0L10.5,5.508a.559.559,0,0,0,0,.794l.013.014-7.6,7.59a.845.845,0,0,0-.243.529l-.19,2.357-.2,1.382a.28.28,0,0,0,.277.32.245.245,0,0,0,.041,0l1.381-.2,2.371-.175a.836.836,0,0,0,.533-.243l7.6-7.591a.558.558,0,0,0,.779-.012L16.85,8.685a.561.561,0,0,0,0-.794L18.042,6.7a1.125,1.125,0,0,0,0-1.589L15.659,2.729A1.118,1.118,0,0,0,14.864,2.411Zm0,.556a.561.561,0,0,1,.4.159l2.382,2.382a.561.561,0,0,1,0,.794L16.453,7.494,13.276,4.317l1.192-1.191A.556.556,0,0,1,14.864,2.967Zm-2.382,1.35.2.2,3.573,3.573.2.2-.4.4a.281.281,0,0,0-.4,0l-.4.4a.281.281,0,0,0,0,.4l-.4.4L10.894,5.905l.4-.4a.281.281,0,0,0,.4,0l.4-.4a.281.281,0,0,0,0-.4Zm.4,1.307a.279.279,0,0,0-.2.082l-.4.4a.281.281,0,0,0,.4.4l.4-.4a.281.281,0,0,0-.2-.479Zm.991.994a.274.274,0,0,0-.2.082l-.4.4a.282.282,0,0,0,0,.4.285.285,0,0,0,.4,0l.4-.4a.277.277,0,0,0,0-.4A.274.274,0,0,0,13.872,6.618Zm-2.962.1,3.176,3.177L6.7,17.261l-.268-1.338,4.658-4.658a.281.281,0,0,0-.4-.4L6.037,15.528l-.661-.133-.133-.662,3.865-3.864a.281.281,0,1,0-.4-.4L4.847,14.335l-1.309-.261Zm3.956.9a.276.276,0,0,0-.2.083l-.4.4a.281.281,0,1,0,.4.4l.4-.4a.279.279,0,0,0,0-.4A.276.276,0,0,0,14.865,7.61ZM10.5,8.8a.283.283,0,0,0-.2.081l-.794.794a.281.281,0,1,0,.4.4l.794-.794a.28.28,0,0,0,0-.4A.273.273,0,0,0,10.5,8.8ZM3.216,14.582l1.484.3.161.81a.282.282,0,0,0,.22.219l.809.162.3,1.5-2.136.157L3.045,16.717Z" transform="translate(-1.925 -2.062)" fill="#707070" stroke="#707070" stroke-width="0.698"/></svg>