<svg xmlns="http://www.w3.org/2000/svg" width="20.946" height="20.732" viewBox="0 0 20.946 20.732"><path d="M.592,4.157H3.6a.551.551,0,0,0,.592-.5V.466a.551.551,0,0,0-.592-.5H.592A.551.551,0,0,0,0,.466V3.658A.551.551,0,0,0,.592,4.157Z" transform="translate(0 0.033)" fill="#666766"/><path d="M15.141,4.907H28.727a.643.643,0,0,0,.643-.643V3.356a.643.643,0,0,0-.643-.643H15.141a.643.643,0,0,0-.643.643v.908A.643.643,0,0,0,15.141,4.907Z" transform="translate(-8.424 -1.563)" fill="#666766"/><path d="M15.141,24.517H28.727a.643.643,0,0,0,.643-.643v-.908a.643.643,0,0,0-.643-.643H15.141a.643.643,0,0,0-.643.643v.908A.643.643,0,0,0,15.141,24.517Z" transform="translate(-8.424 -12.958)" fill="#666766"/><path d="M15.141,44.289H28.727a.643.643,0,0,0,.643-.643v-.908a.643.643,0,0,0-.643-.643H15.141a.643.643,0,0,0-.643.643v.908A.643.643,0,0,0,15.141,44.289Z" transform="translate(-8.424 -24.447)" fill="#666766"/><path d="M.6,23.994H3.587a.561.561,0,0,0,.6-.507V20.312a.561.561,0,0,0-.6-.507H.6a.561.561,0,0,0-.6.507v3.175A.561.561,0,0,0,.6,23.994Z" transform="translate(0 -11.495)" fill="#666766"/><path d="M.592,43.647H3.6a.551.551,0,0,0,.592-.5V39.956a.551.551,0,0,0-.592-.5H.592a.551.551,0,0,0-.592.5v3.193A.551.551,0,0,0,.592,43.647Z" transform="translate(0 -22.914)" fill="#666766"/></svg>