<svg xmlns="http://www.w3.org/2000/svg" width="15.62" height="15.62" viewBox="0 0 15.62 15.62"><path d="M13.667,5.858v-3.5a.977.977,0,0,0-.286-.69L12,.286A.976.976,0,0,0,11.31,0H2.929a.976.976,0,0,0-.976.976V5.858A1.952,1.952,0,0,0,0,7.81v3.417a.488.488,0,0,0,.488.488H1.952v2.929a.976.976,0,0,0,.976.976h9.763a.976.976,0,0,0,.976-.976V11.715h1.464a.488.488,0,0,0,.488-.488V7.81A1.952,1.952,0,0,0,13.667,5.858Zm-1.952,7.81H3.9V10.739h7.81Zm0-6.834H3.9V1.952H9.763V3.417a.488.488,0,0,0,.488.488h1.464Zm1.464,2.2a.732.732,0,1,1,.732-.732A.732.732,0,0,1,13.179,9.03Z" fill="#818181"/></svg>