<svg xmlns="http://www.w3.org/2000/svg" width="30.216" height="30.216" viewBox="0 0 30.216 30.216"><g transform="translate(30.216) rotate(90)"><path d="M0,30.216H30.216V0H0Z" transform="translate(0 0)" fill="none" fill-rule="evenodd"/><path d="M.369,15.477a1.259,1.259,0,1,0,1.781,1.781L9.7,9.7a1.259,1.259,0,0,0,.038-1.741L2.817.408A1.259,1.259,0,1,0,.96,2.11L7.07,8.775Z" transform="translate(15.108 6.295)" fill="#3699ff"/><path d="M2.149.369A1.259,1.259,0,0,0,.369,2.149L7.923,9.7a1.259,1.259,0,0,0,1.741.038l7.554-6.925A1.259,1.259,0,0,0,15.517.96L8.851,7.07Z" transform="translate(6.295 23.921) rotate(-90)" fill="#3699ff" opacity="0.3"/></g></svg>