<svg xmlns="http://www.w3.org/2000/svg" width="50" height="50" viewBox="0 0 50 50">
  <path id="smile-solid" d="M25,.726a25,25,0,1,0,25,25A25,25,0,0,0,25,.726Zm8.065,16.935a3.226,3.226,0,1,1-3.226,3.226A3.222,3.222,0,0,1,33.065,17.661Zm-16.129,0a3.226,3.226,0,1,1-3.226,3.226A3.222,3.222,0,0,1,16.935,17.661ZM36.573,34.819a15.059,15.059,0,0,1-23.145,0,1.614,1.614,0,0,1,2.48-2.067,11.845,11.845,0,0,0,18.185,0A1.614,1.614,0,0,1,36.573,34.819Z" transform="translate(0 -0.726)" fill="#16c85d"/>
</svg>
