<svg xmlns="http://www.w3.org/2000/svg" width="30.952" height="30.952" viewBox="0 0 30.952 30.952">
  <g id="Group_157" data-name="Group 157" transform="translate(-57.698 -9.788)">
    <g id="Group_187" data-name="Group 187">
      <path id="frown-solid" d="M15.476.726A15.476,15.476,0,1,0,30.952,16.2,15.474,15.474,0,0,0,15.476.726ZM20.469,11.21a2,2,0,1,1-2,2A1.995,1.995,0,0,1,20.469,11.21Zm-9.985,0a2,2,0,1,1-2,2A1.995,1.995,0,0,1,10.484,11.21ZM21.105,24.826a7.332,7.332,0,0,0-11.258,0,1,1,0,0,1-1.535-1.279,9.321,9.321,0,0,1,14.322.006A1,1,0,0,1,21.105,24.826Z" transform="translate(57.698 9.062)" fill="#ff3736"/>
    </g>
  </g>
</svg>
