<svg xmlns="http://www.w3.org/2000/svg" width="35" height="41.947" viewBox="0 0 35 41.947"><g transform="translate(-42.395)"><path d="M92.5,3.093l1.529,1.123a.614.614,0,0,0,.663.042,7.538,7.538,0,0,1,1.6-.661.615.615,0,0,0,.439-.5l.286-1.87h2.712l.286,1.87a.615.615,0,0,0,.439.5,7.535,7.535,0,0,1,1.6.661.614.614,0,0,0,.663-.042l1.524-1.12,1.918,1.918-1.12,1.524a.614.614,0,0,0-.042.663,7.536,7.536,0,0,1,.661,1.6.614.614,0,0,0,.5.439l1.828.28a.614.614,0,0,0,.186-1.215l-1.448-.222a8.776,8.776,0,0,0-.465-1.123l1.2-1.64a.614.614,0,0,0-.061-.8l-2.664-2.664a.615.615,0,0,0-.8-.061L102.291,3a8.781,8.781,0,0,0-1.123-.465L100.86.521A.614.614,0,0,0,100.253,0H96.486a.614.614,0,0,0-.607.521L95.57,2.533A8.782,8.782,0,0,0,94.447,3l-1.64-1.2a.614.614,0,0,0-.8.061l-.314.314a.614.614,0,0,0,.8.925Z" transform="translate(-45.096)" fill="#707070"/><path d="M47.348,62.787a.613.613,0,0,0,.364-.119l.516-.379a.614.614,0,0,0-.727-.99l-.091.067-1.918-1.918,1.12-1.524a.614.614,0,0,0,.042-.663,7.537,7.537,0,0,1-.661-1.6.615.615,0,0,0-.5-.439l-1.87-.286V52.227l1.87-.286a.614.614,0,0,0,.5-.439,7.536,7.536,0,0,1,.661-1.6.614.614,0,0,0-.042-.663l-1.12-1.525.154-.154a.614.614,0,1,0-.869-.869l-.527.527a.614.614,0,0,0-.061.8l1.2,1.64a8.79,8.79,0,0,0-.465,1.123l-2.011.308a.614.614,0,0,0-.521.607v3.767a.614.614,0,0,0,.521.607l2.011.308a8.785,8.785,0,0,0,.465,1.123l-1.2,1.64a.614.614,0,0,0,.061.8l2.664,2.664A.614.614,0,0,0,47.348,62.787Z" transform="translate(0 -42.705)" fill="#707070"/><path d="M119.116,72.948a3.756,3.756,0,0,1,2.96,1.432.614.614,0,0,0,.963-.763,5,5,0,0,0-8.107,5.848.614.614,0,1,0,1.027-.675,3.774,3.774,0,0,1,3.157-5.842Z" transform="translate(-65.843 -65.843)" fill="#707070"/><path d="M110.973,126.878a.615.615,0,0,0-.667.557,10.108,10.108,0,0,1-3.419,6.722.614.614,0,0,0-.209.462v8.829H97.731V141.8a.614.614,0,0,0-.614-.614H92.185a1.822,1.822,0,0,1-1.82-1.82v-3.339a.614.614,0,0,0-.614-.614h-2.7l2.961-7.971a.614.614,0,0,0,.037-.255c-.015-.223-.022-.448-.022-.667a10.169,10.169,0,0,1,13.643-9.55.614.614,0,1,0,.421-1.155,11.4,11.4,0,0,0-15.292,10.7c0,.2.006.409.017.616l-3.224,8.678a.614.614,0,0,0,.576.828h2.972v2.724a3.052,3.052,0,0,0,3.049,3.049H96.5v1.033h-.816a.614.614,0,0,0-.5.264l-2.059,2.968a.614.614,0,0,0,.5.965h15.107a.614.614,0,0,0,.614-.614v-2.968a.614.614,0,0,0-.614-.614h-.828v-8.555a11.327,11.327,0,0,0,3.624-7.348A.615.615,0,0,0,110.973,126.878Zm-2.853,19.538H94.8l1.206-1.739h12.113v1.739Z" transform="translate(-39.62 -105.699)" fill="#707070"/><path d="M224.387,121.157l-4.834-3.7a1.392,1.392,0,0,0-2.237,1.105v.832h-3.964a1.6,1.6,0,0,0-1.593,1.593v.352h-1.042v-.832a1.392,1.392,0,0,0-2.237-1.105l-4.834,3.7a1.392,1.392,0,0,0,0,2.21l4.834,3.7a1.392,1.392,0,0,0,2.237-1.105v-.832h3.964a1.6,1.6,0,0,0,1.593-1.593v-.352h1.042v.832a1.39,1.39,0,0,0,2.237,1.105l4.834-3.7a1.392,1.392,0,0,0,0-2.21Zm-9.342,2.743h-1.694a.364.364,0,0,1-.364-.364v-.968h1.694a.364.364,0,0,1,.364.364Zm-.364,1.945H210.1a.614.614,0,0,0-.614.614v1.446a.163.163,0,0,1-.262.129l-4.834-3.7a.163.163,0,0,1,0-.258l4.834-3.7a.163.163,0,0,1,.262.129v1.447a.614.614,0,0,0,.614.614h1.656v.968a1.6,1.6,0,0,0,1.593,1.593h1.694v.352A.364.364,0,0,1,214.681,125.845Zm8.959-3.454-4.834,3.7a.163.163,0,0,1-.262-.129v-1.447a.614.614,0,0,0-.614-.614h-1.656v-.968a1.6,1.6,0,0,0-1.593-1.593h-1.694v-.352a.364.364,0,0,1,.364-.364h4.579a.614.614,0,0,0,.614-.614v-1.447a.163.163,0,0,1,.262-.129l4.834,3.7a.163.163,0,0,1,0,.258Z" transform="translate(-147.538 -107.571)" fill="#707070"/><path d="M272.328,294.894H271.5a.614.614,0,0,0,0,1.229h.825a2.087,2.087,0,0,0,2.085-2.085V291.9a2.087,2.087,0,0,0-2.085-2.085H271.5a.614.614,0,0,0,0,1.229h.825a.857.857,0,0,1,.856.856v2.137A.857.857,0,0,1,272.328,294.894Z" transform="translate(-209.773 -266.073)" fill="#707070"/></g></svg>
