<svg xmlns="http://www.w3.org/2000/svg" width="63" height="56.196" viewBox="0 0 63 56.196">
	<g transform="translate(-57.698 -9)">
		<path d="M25,.726a25,25,0,1,0,25,25A25,25,0,0,0,25,.726Zm8.065,16.935a3.226,3.226,0,1,1-3.226,3.226A3.222,3.222,0,0,1,33.065,17.661Zm-16.129,0a3.226,3.226,0,1,1-3.226,3.226A3.222,3.222,0,0,1,16.935,17.661Zm17.157,22a11.845,11.845,0,0,0-18.185,0,1.614,1.614,0,0,1-2.48-2.067,15.057,15.057,0,0,1,23.135.01A1.607,1.607,0,0,1,34.093,39.657Z" transform="translate(57.698 14.47)" fill="#e8523a" />
		<g transform="translate(100.698 9)" fill="#e8523a" stroke="#e8523a" stroke-width="1">
			<rect width="20" height="4" rx="2" stroke="none" />
			<rect x="0.5" y="0.5" width="19" height="3" rx="1.5" fill="none" />
		</g>
	</g>
</svg>
