<svg xmlns="http://www.w3.org/2000/svg" width="66" height="63" viewBox="0 0 66 63"><g transform="translate(-40.421 -3)"><path d="M25,.726a25,25,0,1,0,25,25A25,25,0,0,0,25,.726Zm8.065,16.935a3.226,3.226,0,1,1-3.226,3.226A3.222,3.222,0,0,1,33.065,17.661Zm-16.129,0a3.226,3.226,0,1,1-3.226,3.226A3.222,3.222,0,0,1,16.935,17.661ZM36.573,34.819a15.059,15.059,0,0,1-23.145,0,1.614,1.614,0,0,1,2.48-2.067,11.845,11.845,0,0,0,18.185,0A1.614,1.614,0,0,1,36.573,34.819Z" transform="translate(40.421 15.274)" fill="#16c85d"/><path d="M18.571,15H12.143V8.571a1.429,1.429,0,0,0-1.429-1.429H9.286A1.429,1.429,0,0,0,7.857,8.571V15H1.429A1.429,1.429,0,0,0,0,16.429v1.429a1.429,1.429,0,0,0,1.429,1.429H7.857v6.429a1.429,1.429,0,0,0,1.429,1.429h1.429a1.429,1.429,0,0,0,1.429-1.429V19.286h6.429A1.429,1.429,0,0,0,20,17.857V16.429A1.429,1.429,0,0,0,18.571,15Z" transform="translate(86.421 -4.143)" fill="#16c85d"/></g></svg>