<svg xmlns="http://www.w3.org/2000/svg" width="29.658" height="42.703" viewBox="0 0 29.658 42.703"><g transform="translate(0 7.253)"><g transform="translate(0 -7.253)"><path d="M147.378,56.009a1.545,1.545,0,0,0-1.543-1.543h-.1a.3.3,0,0,1-.284-.225,9.251,9.251,0,0,0-.736-1.844.3.3,0,0,1,.046-.354l.053-.053a1.545,1.545,0,0,0,0-2.182l-1.233-1.233a1.542,1.542,0,0,0-2.182,0l-.011.012a.3.3,0,0,1-.36.042,9.245,9.245,0,0,0-1.9-.8.291.291,0,0,1-.2-.282,1.545,1.545,0,0,0-1.543-1.543h-1.744a1.545,1.545,0,0,0-1.543,1.547.289.289,0,0,1-.2.278,9.25,9.25,0,0,0-1.9.8.3.3,0,0,1-.36-.043l-.011-.011a1.542,1.542,0,0,0-2.182,0L128.2,49.808a1.542,1.542,0,0,0,0,2.182l.053.053a.3.3,0,0,1,.046.354,9.24,9.24,0,0,0-.736,1.844.3.3,0,0,1-.284.225h-.1a1.545,1.545,0,0,0-1.543,1.543v1.744a1.545,1.545,0,0,0,1.543,1.543h.186a.3.3,0,0,1,.282.216,9.25,9.25,0,0,0,.763,1.768.286.286,0,0,1-.053.34l-.152.152a1.542,1.542,0,0,0,0,2.182l1.233,1.233a1.542,1.542,0,0,0,2.182,0l.193-.193a.287.287,0,0,1,.334-.056,9.25,9.25,0,0,0,1.746.713.292.292,0,0,1,.2.283v.279a1.545,1.545,0,0,0,1.543,1.543h1.744a1.545,1.545,0,0,0,1.543-1.543v-.279a.292.292,0,0,1,.2-.283,9.252,9.252,0,0,0,1.746-.713.287.287,0,0,1,.334.056l.193.193a1.542,1.542,0,0,0,2.182,0l1.233-1.233a1.545,1.545,0,0,0,0-2.182l-.152-.152a.286.286,0,0,1-.053-.34,9.253,9.253,0,0,0,.763-1.768.3.3,0,0,1,.282-.216h.186a1.545,1.545,0,0,0,1.543-1.543V56.009Zm-1.251,1.744a.292.292,0,0,1-.292.292h-.186a1.544,1.544,0,0,0-1.476,1.094,7.991,7.991,0,0,1-.66,1.528,1.541,1.541,0,0,0,.26,1.837l.152.152a.292.292,0,0,1,0,.413L142.692,64.3a.292.292,0,0,1-.413,0l-.193-.193a1.546,1.546,0,0,0-1.807-.275,8,8,0,0,1-1.509.616,1.549,1.549,0,0,0-1.1,1.483v.279a.292.292,0,0,1-.292.292h-1.744a.292.292,0,0,1-.292-.292v-.279a1.55,1.55,0,0,0-1.1-1.483,8,8,0,0,1-1.509-.616,1.509,1.509,0,0,0-.711-.176,1.553,1.553,0,0,0-1.1.452l-.193.193a.292.292,0,0,1-.413,0l-1.233-1.233a.292.292,0,0,1,0-.413l.152-.152a1.541,1.541,0,0,0,.26-1.837,8,8,0,0,1-.659-1.528,1.544,1.544,0,0,0-1.476-1.094h-.186a.292.292,0,0,1-.292-.292V56.009a.292.292,0,0,1,.292-.292h.1a1.556,1.556,0,0,0,1.489-1.14,7.993,7.993,0,0,1,.636-1.594,1.543,1.543,0,0,0-.267-1.824l-.053-.053a.292.292,0,0,1,0-.413l1.233-1.233a.292.292,0,0,1,.414,0l.011.011a1.557,1.557,0,0,0,1.854.25,8,8,0,0,1,1.643-.69,1.548,1.548,0,0,0,1.1-1.482.292.292,0,0,1,.292-.292h1.744a.293.293,0,0,1,.292.3,1.547,1.547,0,0,0,1.1,1.478,7.993,7.993,0,0,1,1.643.69,1.557,1.557,0,0,0,1.854-.25l.012-.012a.292.292,0,0,1,.413,0l1.233,1.233a.292.292,0,0,1,0,.413l-.053.053a1.543,1.543,0,0,0-.267,1.824,7.992,7.992,0,0,1,.636,1.594,1.556,1.556,0,0,0,1.489,1.14h.1a.292.292,0,0,1,.292.292v1.744Z" transform="translate(-121.675 -42.17)" fill="#707070"/><path d="M184.105,96.26a6.542,6.542,0,1,0,6.542,6.542A6.549,6.549,0,0,0,184.105,96.26Zm0,11.833a5.275,5.275,0,0,1-3.78-1.593,4.5,4.5,0,0,1,2.475-1.87,2.8,2.8,0,0,0,2.61,0,4.5,4.5,0,0,1,2.475,1.87A5.275,5.275,0,0,1,184.105,108.093Zm-1.561-5.953a1.561,1.561,0,1,1,1.561,1.561A1.563,1.563,0,0,1,182.544,102.14Zm6.135,3.316a5.747,5.747,0,0,0-2.228-1.769,2.812,2.812,0,1,0-4.692,0,5.746,5.746,0,0,0-2.228,1.769,5.291,5.291,0,1,1,9.149,0Z" transform="translate(-169.276 -88.231)" fill="#707070"/><path d="M162.186,4.305a14.8,14.8,0,0,0-19.7-1.045.625.625,0,1,0,.783.976,13.566,13.566,0,0,1,22.048,10.593,13.429,13.429,0,0,1-2.974,8.48.625.625,0,1,0,.976.782,14.829,14.829,0,0,0-1.133-19.786Z" transform="translate(-136.91 0)" fill="#707070"/><path d="M102.62,82.319a.626.626,0,0,0-.874.135A19.383,19.383,0,0,0,99.6,86.2H86.48a19.092,19.092,0,0,0-3.46-5.339,13.544,13.544,0,0,1-.448-17.8.625.625,0,1,0-.964-.8,14.795,14.795,0,0,0,.49,19.443,17.846,17.846,0,0,1,3.143,4.786,2.158,2.158,0,0,0-.437,3.4,2.157,2.157,0,0,0,0,3.07,2.159,2.159,0,0,0,1.519,3.7h.04v.175a2.731,2.731,0,0,0,2.728,2.728h7.888a2.731,2.731,0,0,0,2.728-2.728v-.175h.04a2.159,2.159,0,0,0,1.519-3.7,2.157,2.157,0,0,0,0-3.07,2.158,2.158,0,0,0-.431-3.4,18.139,18.139,0,0,1,1.922-3.3A.626.626,0,0,0,102.62,82.319Zm-4.166,14.52a1.478,1.478,0,0,1-1.477,1.477H89.089a1.478,1.478,0,0,1-1.477-1.477v-.175H98.454v.175ZM90.3,93.594h9.449a.91.91,0,1,1,0,1.819H86.322a.91.91,0,0,1,0-1.819h1.05a.625.625,0,0,0,0-1.251h-1.05a.91.91,0,0,1,0-1.819H99.745a.91.91,0,1,1,0,1.819H90.3a.625.625,0,1,0,0,1.251Zm9.449-4.321H86.322a.909.909,0,0,1-.168-1.8l.04-.006a.918.918,0,0,1,.127-.01H99.745a.9.9,0,0,1,.133.011l.042.006a.91.91,0,0,1-.175,1.8Z" transform="translate(-78.204 -56.864)" fill="#707070"/></g></g></svg>