<svg xmlns="http://www.w3.org/2000/svg" width="40" height="36" viewBox="0 0 40 36"><path d="M38,6H29.333V3.333A3.337,3.337,0,0,0,26,0H14a3.337,3.337,0,0,0-3.333,3.333V6H2A2,2,0,0,0,0,8V22.84a2.009,2.009,0,0,0,1.333,1.882V34a2,2,0,0,0,2,2H36.667a2,2,0,0,0,2-2V24.723A2.009,2.009,0,0,0,40,22.84V8a2,2,0,0,0-2-2ZM12,3.333a2,2,0,0,1,2-2H26a2,2,0,0,1,2,2V6H26.667V3.333A.667.667,0,0,0,26,2.667H14a.667.667,0,0,0-.667.667V6H12ZM25.333,6H14.667V4H25.333Zm12,28a.667.667,0,0,1-.667.667H3.333A.667.667,0,0,1,2.667,34V24.951l14.667,2.023v1.693a2,2,0,0,0,2,2h1.333a2,2,0,0,0,2-2V26.974l14.667-2.023Zm-16-5.333a.667.667,0,0,1-.667.667H19.333a.667.667,0,0,1-.667-.667v-4A.667.667,0,0,1,19.333,24h1.333a.667.667,0,0,1,.667.667ZM38.667,22.84a.667.667,0,0,1-.573.661l-.185.025-15.242,2.1v-.961a2,2,0,0,0-2-2H19.333a2,2,0,0,0-2,2v.961L1.907,23.5a.667.667,0,0,1-.574-.661V8A.667.667,0,0,1,2,7.333H38A.667.667,0,0,1,38.667,8Zm0,0" fill="#707070"/></svg>