<?xml version="1.0" encoding="utf-8"?>
<!-- Generator: Adobe Illustrator 22.1.0, SVG Export Plug-In . SVG Version: 6.00 Build 0)  -->
<svg version="1.1" id="Layer_1" xmlns="http://www.w3.org/2000/svg" xmlns:xlink="http://www.w3.org/1999/xlink" x="0px" y="0px"
	 viewBox="0 0 1403.7 498.5" style="enable-background:new 0 0 1403.7 498.5;" xml:space="preserve">
<style type="text/css">
	.st0{clip-path:url(#SVGID_2_);}
	.st1{clip-path:url(#SVGID_4_);fill:#FFFFFF;}
	.st2{clip-path:url(#SVGID_6_);fill:#FFFFFF;}
	.st3{clip-path:url(#SVGID_8_);fill:#FFFFFF;}
	.st4{fill:#AEABAA;}
	.st5{font-family:'Shabnam';}
	.st6{font-size:60px;}
	.st7{fill:none;}
	.st8{fill:#FAB61D;}
	.st9{font-size:60px;}
	.st10{clip-path:url(#SVGID_10_);}
	.st11{clip-path:url(#SVGID_12_);fill:url(#SVGID_13_);}
	.st12{clip-path:url(#SVGID_15_);fill:#FFFFFF;}
	.st13{clip-path:url(#SVGID_15_);fill:none;stroke:#EEEEEE;stroke-miterlimit:10;}
</style>
<g>
	<defs>
		<rect id="SVGID_1_" x="2.6" y="0" width="1401.1" height="498.5"/>
	</defs>
	<clipPath id="SVGID_2_">
		<use xlink:href="#SVGID_1_"  style="overflow:visible;"/>
	</clipPath>
	<g class="st0">
		<defs>
			<path id="SVGID_3_" d="M151.7,117.5l-62.2,0.9c-16.9,0.9-29.3,12.5-38.8,25.2l-22.8,42.6c-10.6,21.8-4.3,38.1,8.5,54
				c14.8,17,33.3,28.1,52.4,40.6c2.2,1.4,2.4,4.6,0.4,6.3l-13.9,12C28.3,334,2.6,371.2,2.6,411.1v0.1c0,15.2,3.8,30.9,11.5,46.9
				C8,413.3,30.5,375.7,76.9,344c4,42.8,37.5,72.9,72.4,71.3c33.2-2.2,58.8-27.6,103.9-72.1c37.8-37.8,66.5-17.6,110.7,1
				c5.2,2.2,11.1,0.1,13.8-4.8l15.8-29c3.1-5.6,0.7-12.6-5.2-15.2l-33.2-15.2c-46.3-24.3-35.1-50.5,19.3-92.4
				c5.7,36.1,23.1,61.6,63.3,60.8l325.6-2.2l23.9-43.5c2.2-4.1-0.7-9-5.4-9l-335.4,3.6c-39.1-0.2-53-18.5-51.9-56.3
				c-0.9-12-7.4-10.5-16.9-3.9c-55.1,51.2-91.5,99.5-80.2,140.4c-23.1,2.4-45,16.9-66.4,35.7l-39.9,38.6c-14,12.3-40.6,44.6-71,40
				c-16.9-2.6-29.5-22.5-30.4-58.6l150.1-116.9l-6.7-36.2c-0.8-4.4-6-6.4-9.5-3.6l-96.6,76.1c-22.9-12.1-43.5-23.7-54-33.3
				c-13.8-12.4-22.1-25.8-24.5-40.2c-0.7-8,3.1-13.2,13.4-14.7h74.9l20.7-36.3c2.6-4.6-0.7-10.4-6-10.4
				C151.8,117.5,151.7,117.5,151.7,117.5"/>
		</defs>
		<clipPath id="SVGID_4_">
			<use xlink:href="#SVGID_3_"  style="overflow:visible;"/>
		</clipPath>

			<rect x="1.3" y="114.5" transform="matrix(1 -7.633348e-03 7.633348e-03 1 -2.1855 3.0319)" class="st1" width="789.6" height="346.6"/>
	</g>
	<g class="st0">
		<defs>
			<path id="SVGID_5_" d="M112.4,45.9L84.9,75c3.4-0.2,8.5,0.9,11.7,3.9l27.1,24.2l35.6-34.2c-7.2-9.4-14.9-17.7-23.1-24.5
				c-3.2-2.6-7.1-3.9-11-3.9C120.5,40.4,115.9,42.3,112.4,45.9"/>
		</defs>
		<use xlink:href="#SVGID_5_"  style="overflow:visible;fill:#FFFFFF;"/>
		<clipPath id="SVGID_6_">
			<use xlink:href="#SVGID_5_"  style="overflow:visible;"/>
		</clipPath>

			<rect x="84.7" y="40.1" transform="matrix(1 -7.633551e-03 7.633551e-03 1 -0.5439 0.9344)" class="st2" width="74.9" height="63.2"/>
	</g>
	<g class="st0">
		<defs>
			<path id="SVGID_7_" d="M425.2,298.8c2.8,1.6,4.2,3.8,2.4,7.3l-16.8,33c-2.4,4.8,1,10.4,6.4,10.4l148.3-0.6l18.6-40.5
				c2-4.4-1.2-9.5-6.1-9.5H425.2z"/>
		</defs>
		<clipPath id="SVGID_8_">
			<use xlink:href="#SVGID_7_"  style="overflow:visible;"/>
		</clipPath>

			<rect x="408.1" y="298.1" transform="matrix(1 -7.633342e-03 7.633342e-03 1 -2.4598 3.8049)" class="st3" width="178.2" height="52.1"/>
	</g>
	<g class="st0">
		<text transform="matrix(1 0 0 1 462.7087 410.4776)" class="st4 st5 st6">Simorgh</text>
	</g>
	<g class="st0">
		<rect x="618.1" y="131.5" class="st7" width="197.5" height="81"/>
		<text transform="matrix(1 0 0 1 618.0999 184.751)" class="st8 st5 st9">34000</text>
	</g>
</g>
<g>
	<g>
		<defs>
			<rect id="SVGID_9_" x="838.1" y="0" width="565.6" height="498.5"/>
		</defs>
		<clipPath id="SVGID_10_">
			<use xlink:href="#SVGID_9_"  style="overflow:visible;"/>
		</clipPath>
		<g class="st10">
			<defs>
				<path id="SVGID_11_" d="M1067.8,0c-19.2,0.1-38.5,5.1-55.7,15L895.8,82.1c-35.7,20.6-57.7,58.7-57.7,99.9l0,52.2l0,30.1v55.5
					c0,38.5,20.5,74,53.9,93.3l121.9,70.4c34.7,20,77.4,20,112.2,0l116.3-67.1c35.7-20.6,57.7-58.7,57.7-99.9l0-52.2l0-30.1v-55.5
					c0-38.5-20.5-74-53.9-93.3L1124.3,15c-17.3-10-36.5-15-55.7-15H1067.8z"/>
			</defs>
			<clipPath id="SVGID_12_">
				<use xlink:href="#SVGID_11_"  style="overflow:visible;"/>
			</clipPath>

				<linearGradient id="SVGID_13_" gradientUnits="userSpaceOnUse" x1="2.5998" y1="496.7989" x2="3.5998" y2="496.7989" gradientTransform="matrix(0 490.8251 -490.8251 0 244910.4219 -1277.7704)">
				<stop  offset="0" style="stop-color:#3C398E"/>
				<stop  offset="1" style="stop-color:#3F69B1"/>
			</linearGradient>
			<rect x="838.1" y="0" class="st11" width="462" height="503.5"/>
		</g>
		<g class="st10">
			<defs>
				<rect id="SVGID_14_" x="838.1" y="0" width="565.6" height="498.5"/>
			</defs>
			<clipPath id="SVGID_15_">
				<use xlink:href="#SVGID_14_"  style="overflow:visible;"/>
			</clipPath>
			<path class="st12" d="M1213.4,108.6c-23.5,40.7-53.5,68.8-88.2,88l0.9,14.3c46.5-15.6,85.8-43,108.8-87
				C1228.6,117.9,1221.4,112.9,1213.4,108.6"/>
			<path class="st12" d="M1176,87.3c-9.8,29.9-30.9,57.9-56.3,85.1l-7.9-14.7c18.4-19.2,32.5-45.8,39.2-85.3L1176,87.3z"/>
			<path class="st12" d="M1094.8,41.8l25.3,13c0.3,36.9-7.9,64-23,83.4l-12-10.6C1095.6,105.6,1100.3,77.8,1094.8,41.8"/>
			<path class="st12" d="M1066.7,37.1l-23.4,2.7c8.5,25.7,12.1,49.8,9.2,71.9l15.7,5.6C1071.6,89.6,1071.6,62.8,1066.7,37.1"/>
			<path class="st12" d="M1029.8,107.4l-13.4,0.1c-5.7-15-14.3-29-25.2-42l18-10.4C1020.5,71,1028.4,88.1,1029.8,107.4"/>
			<path class="st12" d="M963.8,81.4c10,11.1,18.3,21.9,23.9,32.3l-12.9,6.2c-8.3-9.9-17.6-19.2-28.3-27.8L963.8,81.4z"/>
			<path class="st12" d="M943.3,145.3c-15.1-5.5-34.5-9.8-55.7-13.5c5.9-6.9,12.5-12.8,20.2-18.1c15.9,6.9,30.8,12.5,44.7,21.9
				L943.3,145.3z"/>
			<path class="st12" d="M928,170.4c-26.9-1.8-47.5-0.3-60.9,5.1l-0.9,23.6c18.8-7.7,37.7-12.1,56.9-12.3L928,170.4z"/>
			<path class="st12" d="M921.2,225.4c-20.2,13.5-38.4,31.6-55.3,52.7l0.1-36c15.8-13.5,32.9-25.3,54.1-31.7L921.2,225.4z"/>
			<path class="st12" d="M925.7,245.7L934,262c-25.4,35.3-35.5,76.5-37.7,120.8c-13.1-11.7-22.3-26.8-27.7-45.1
				C881.4,301.7,898.6,269.4,925.7,245.7"/>
			<path class="st12" d="M955.3,288c-9.9,54.4-5.7,103.3,20.4,143.2l-47.2-26c-9.4-45.2-5.8-87.7,17.1-126.1L955.3,288z"/>
			<path class="st12" d="M970.6,299.2c5.3,111,41.7,186.2,119.1,165.3c-35.9-25.8-60.7-60.3-77.2-101.2c50.2,64.1,107.7,100,182,71
				c-57.9-16.5-103.6-42-134.6-78.4c51.6,43.8,169.1,70.6,227,31.4c-91.9-11.9-154.1-27.9-188.9-47.5
				c115.8,29.1,198.4,20.7,242.6-30.9c-93,11.7-163.9,11.2-212.9-1.3c130.6-0.2,251.1-24.7,276-112.9c0.4-1.4-1.1-2.7-2.4-1.9
				c-88.2,49.1-172.4,74-251,72.2c163.2-30.9,255.2-110.7,252.2-243.4c-0.1-2.5-3.4-3.3-4.5-1.1
				c-63.8,122.2-157.4,177.2-272.6,204.7C1117.8,298.2,1028.8,336.6,970.6,299.2"/>
			<path class="st13" d="M970.6,299.2c5.3,111,41.7,186.2,119.1,165.3c-35.9-25.8-60.7-60.3-77.2-101.2c50.2,64.1,107.7,100,182,71
				c-57.9-16.5-103.6-42-134.6-78.4c51.6,43.8,169.1,70.6,227,31.4c-91.9-11.9-154.1-27.9-188.9-47.5
				c115.8,29.1,198.4,20.7,242.6-30.9c-93,11.7-163.9,11.2-212.9-1.3c130.6-0.2,251.1-24.7,276-112.9c0.4-1.4-1.1-2.7-2.4-1.9
				c-88.2,49.1-172.4,74-251,72.2c163.2-30.9,255.2-110.7,252.2-243.4c-0.1-2.5-3.4-3.3-4.5-1.1
				c-63.8,122.2-157.4,177.2-272.6,204.7C1117.8,298.2,1028.8,336.6,970.6,299.2"/>
		</g>
	</g>
</g>
</svg>
