<?xml version="1.0" encoding="utf-8"?>
<!-- Generator: Adobe Illustrator 22.1.0, SVG Export Plug-In . SVG Version: 6.00 Build 0)  -->
<svg version="1.1" id="Layer_1" xmlns="http://www.w3.org/2000/svg" xmlns:xlink="http://www.w3.org/1999/xlink" x="0px" y="0px"
	 viewBox="0 0 1401.1 498.5" style="enable-background:new 0 0 1401.1 498.5;" xml:space="preserve">
<style type="text/css">
	.st0{clip-path:url(#SVGID_2_);}
	.st1{clip-path:url(#SVGID_4_);fill:#E3E3E3;}
	.st2{clip-path:url(#SVGID_6_);fill:url(#SVGID_7_);}
	.st3{clip-path:url(#SVGID_9_);fill:url(#SVGID_10_);}
	.st4{clip-path:url(#SVGID_12_);fill:url(#SVGID_13_);}
	.st5{clip-path:url(#SVGID_15_);fill:url(#SVGID_16_);}
	.st6{clip-path:url(#SVGID_18_);fill:url(#SVGID_19_);}
	.st7{clip-path:url(#SVGID_21_);fill:url(#SVGID_22_);}
	.st8{clip-path:url(#SVGID_24_);fill:url(#SVGID_25_);}
	.st9{clip-path:url(#SVGID_27_);fill:url(#SVGID_28_);}
	.st10{clip-path:url(#SVGID_30_);fill:url(#SVGID_31_);}
	.st11{clip-path:url(#SVGID_33_);fill:url(#SVGID_34_);}
	.st12{clip-path:url(#SVGID_36_);fill:url(#SVGID_37_);}
	.st13{clip-path:url(#SVGID_39_);fill:url(#SVGID_40_);}
	.st14{clip-path:url(#SVGID_42_);fill:url(#SVGID_43_);}
	.st15{clip-path:url(#SVGID_45_);fill:url(#SVGID_46_);}
	.st16{clip-path:url(#SVGID_48_);fill:url(#SVGID_49_);}
	.st17{fill:#A5A4A4;}
	.st18{font-family:'Shabnam';}
	.st19{font-size:60px;}
	.st20{fill:none;}
	.st21{fill:#FCB430;}
	.st22{font-size:60px;}
</style>
<g>
	<defs>
		<rect id="SVGID_1_" width="1401.1" height="498.5"/>
	</defs>
	<clipPath id="SVGID_2_">
		<use xlink:href="#SVGID_1_"  style="overflow:visible;"/>
	</clipPath>
	<g class="st0">
		<defs>
			<rect id="SVGID_3_" width="1401.1" height="498.5"/>
		</defs>
		<clipPath id="SVGID_4_">
			<use xlink:href="#SVGID_3_"  style="overflow:visible;"/>
		</clipPath>
		<path class="st1" d="M1297.4,178.7v55.5l0,30.1l0,52.2c0,41.2-22,79.3-57.7,99.9l-116.3,67.1c-34.7,20-77.5,20-112.2,0
			l-121.9-70.4c-33.3-19.2-53.9-54.8-53.9-93.3v-55.5l0-30.1l0-52.2c0-41.2,22-79.3,57.7-99.9L1009.5,15c34.7-20,77.4-20,112.1,0
			l121.9,70.4C1276.9,104.7,1297.4,140.2,1297.4,178.7"/>
	</g>
	<g class="st0">
		<defs>
			<path id="SVGID_5_" d="M1122.6,196.6l0.8,14.3c46.5-15.6,85.8-43,108.8-87c-6.2-6-13.4-11-21.4-15.3
				C1187.3,149.3,1157.3,177.5,1122.6,196.6"/>
		</defs>
		<clipPath id="SVGID_6_">
			<use xlink:href="#SVGID_5_"  style="overflow:visible;"/>
		</clipPath>

			<linearGradient id="SVGID_7_" gradientUnits="userSpaceOnUse" x1="0" y1="498.5002" x2="1" y2="498.5002" gradientTransform="matrix(546.8937 -24.5106 -24.5106 -546.8937 12940.6104 272806.7813)">
			<stop  offset="0" style="stop-color:#443A97"/>
			<stop  offset="1" style="stop-color:#6399D1"/>
		</linearGradient>
		<polygon class="st2" points="1118.1,108.8 1232,103.7 1236.8,210.7 1122.8,215.8 		"/>
	</g>
	<g class="st0">
		<defs>
			<path id="SVGID_8_" d="M1109.2,157.7l7.9,14.7c25.4-27.3,46.5-55.2,56.3-85.1l-25-14.8C1141.7,111.9,1127.6,138.6,1109.2,157.7"
				/>
		</defs>
		<clipPath id="SVGID_9_">
			<use xlink:href="#SVGID_8_"  style="overflow:visible;"/>
		</clipPath>

			<linearGradient id="SVGID_10_" gradientUnits="userSpaceOnUse" x1="0" y1="498.5003" x2="1" y2="498.5003" gradientTransform="matrix(546.8937 -24.5106 -24.5106 -546.8937 12938.8711 272767.9688)">
			<stop  offset="0" style="stop-color:#443A97"/>
			<stop  offset="1" style="stop-color:#6399D1"/>
		</linearGradient>
		<polygon class="st3" points="1104.7,72.7 1173.3,69.6 1177.9,172.2 1109.3,175.3 		"/>
	</g>
	<g class="st0">
		<defs>
			<path id="SVGID_11_" d="M1082.5,127.6l12,10.6c15.1-19.3,23.3-46.5,23-83.4l-25.3-13C1097.7,77.8,1093,105.6,1082.5,127.6"/>
		</defs>
		<clipPath id="SVGID_12_">
			<use xlink:href="#SVGID_11_"  style="overflow:visible;"/>
		</clipPath>

			<linearGradient id="SVGID_13_" gradientUnits="userSpaceOnUse" x1="0" y1="498.5005" x2="1" y2="498.5005" gradientTransform="matrix(546.8937 -24.5106 -24.5106 -546.8937 12937.3418 272733.8438)">
			<stop  offset="0" style="stop-color:#443A97"/>
			<stop  offset="1" style="stop-color:#6399D1"/>
		</linearGradient>
		<polygon class="st4" points="1078.2,42 1117.7,40.2 1122.1,138 1082.6,139.8 		"/>
	</g>
	<g class="st0">
		<defs>
			<path id="SVGID_14_" d="M1040.8,39.8c8.5,25.7,12.1,49.8,9.2,71.9l15.7,5.6c3.4-27.7,3.4-54.5-1.5-80.2L1040.8,39.8z"/>
		</defs>
		<clipPath id="SVGID_15_">
			<use xlink:href="#SVGID_14_"  style="overflow:visible;"/>
		</clipPath>

			<linearGradient id="SVGID_16_" gradientUnits="userSpaceOnUse" x1="0" y1="498.5018" x2="1" y2="498.5018" gradientTransform="matrix(546.8937 -24.5106 -24.5106 -546.8937 12936.7109 272719.7813)">
			<stop  offset="0" style="stop-color:#443A97"/>
			<stop  offset="1" style="stop-color:#6399D1"/>
		</linearGradient>
		<polygon class="st5" points="1037.2,37.3 1069,35.8 1072.6,117.1 1040.8,118.5 		"/>
	</g>
	<g class="st0">
		<defs>
			<path id="SVGID_17_" d="M988.7,65.5c10.9,13.1,19.5,27,25.2,42l13.4-0.1c-1.4-19.4-9.3-36.4-20.5-52.3L988.7,65.5z"/>
		</defs>
		<clipPath id="SVGID_18_">
			<use xlink:href="#SVGID_17_"  style="overflow:visible;"/>
		</clipPath>

			<linearGradient id="SVGID_19_" gradientUnits="userSpaceOnUse" x1="0" y1="498.5017" x2="1" y2="498.5017" gradientTransform="matrix(546.8937 -24.5106 -24.5106 -546.8937 12936.7979 272721.7188)">
			<stop  offset="0" style="stop-color:#443A97"/>
			<stop  offset="1" style="stop-color:#6399D1"/>
		</linearGradient>
		<polygon class="st6" points="986.3,55.2 1027.1,53.4 1029.6,107.4 988.7,109.3 		"/>
	</g>
	<g class="st0">
		<defs>
			<path id="SVGID_20_" d="M943.8,92c10.7,8.6,20,18,28.3,27.8l12.9-6.2c-5.7-10.3-13.9-21.1-23.9-32.3L943.8,92z"/>
		</defs>
		<clipPath id="SVGID_21_">
			<use xlink:href="#SVGID_20_"  style="overflow:visible;"/>
		</clipPath>

			<linearGradient id="SVGID_22_" gradientUnits="userSpaceOnUse" x1="0" y1="498.5012" x2="1" y2="498.5012" gradientTransform="matrix(546.8937 -24.5106 -24.5106 -546.8937 12937.5625 272738.7813)">
			<stop  offset="0" style="stop-color:#443A97"/>
			<stop  offset="1" style="stop-color:#6399D1"/>
		</linearGradient>
		<polygon class="st7" points="942.1,81.5 985,79.6 986.8,119.8 943.9,121.7 		"/>
	</g>
	<g class="st0">
		<defs>
			<path id="SVGID_23_" d="M885,131.8c21.2,3.7,40.5,8,55.7,13.5l9.3-9.7c-13.9-9.4-28.8-15-44.7-21.9
				C897.5,119,890.9,124.9,885,131.8"/>
		</defs>
		<clipPath id="SVGID_24_">
			<use xlink:href="#SVGID_23_"  style="overflow:visible;"/>
		</clipPath>

			<linearGradient id="SVGID_25_" gradientUnits="userSpaceOnUse" x1="0" y1="498.5015" x2="1" y2="498.5015" gradientTransform="matrix(546.8937 -24.5106 -24.5106 -546.8937 12938.7676 272765.6563)">
			<stop  offset="0" style="stop-color:#443A97"/>
			<stop  offset="1" style="stop-color:#6399D1"/>
		</linearGradient>
		<polygon class="st8" points="883.6,113.8 949.8,110.8 951.4,145.3 885.1,148.2 		"/>
	</g>
	<g class="st0">
		<defs>
			<path id="SVGID_26_" d="M864.5,175.5l-0.9,23.6c18.8-7.7,37.7-12.1,56.9-12.3l4.9-16.5c-7.1-0.5-13.8-0.7-20-0.7
				C888.1,169.7,874.3,171.5,864.5,175.5"/>
		</defs>
		<clipPath id="SVGID_27_">
			<use xlink:href="#SVGID_26_"  style="overflow:visible;"/>
		</clipPath>

			<linearGradient id="SVGID_28_" gradientUnits="userSpaceOnUse" x1="0" y1="498.5" x2="1" y2="498.5" gradientTransform="matrix(546.8937 -24.5106 -24.5106 -546.8937 12941.1387 272818.5938)">
			<stop  offset="0" style="stop-color:#443A97"/>
			<stop  offset="1" style="stop-color:#6399D1"/>
		</linearGradient>
		<polygon class="st9" points="862.2,169.7 925.2,166.9 926.7,199 863.7,201.9 		"/>
	</g>
	<g class="st0">
		<defs>
			<path id="SVGID_29_" d="M863.4,242.1l-0.1,36c16.9-21.1,35.1-39.3,55.3-52.7l-1-14.9C896.3,216.9,879.2,228.6,863.4,242.1"/>
		</defs>
		<clipPath id="SVGID_30_">
			<use xlink:href="#SVGID_29_"  style="overflow:visible;"/>
		</clipPath>

			<linearGradient id="SVGID_31_" gradientUnits="userSpaceOnUse" x1="0" y1="498.501" x2="1" y2="498.501" gradientTransform="matrix(546.8937 -24.5106 -24.5106 -546.8937 12943.8359 272878.75)">
			<stop  offset="0" style="stop-color:#443A97"/>
			<stop  offset="1" style="stop-color:#6399D1"/>
		</linearGradient>
		<polygon class="st10" points="860.3,210.6 918.5,208 921.6,278 863.4,280.6 		"/>
	</g>
	<g class="st0">
		<defs>
			<path id="SVGID_32_" d="M865.9,337.7c5.4,18.3,14.6,33.4,27.7,45.1c2.1-44.3,12.3-85.6,37.7-120.8l-8.3-16.3
				C896,269.4,878.8,301.7,865.9,337.7"/>
		</defs>
		<clipPath id="SVGID_33_">
			<use xlink:href="#SVGID_32_"  style="overflow:visible;"/>
		</clipPath>

			<linearGradient id="SVGID_34_" gradientUnits="userSpaceOnUse" x1="0" y1="498.5018" x2="1" y2="498.5018" gradientTransform="matrix(546.8937 -24.5106 -24.5106 -546.8937 12947.002 272949.375)">
			<stop  offset="0" style="stop-color:#443A97"/>
			<stop  offset="1" style="stop-color:#6399D1"/>
		</linearGradient>
		<polygon class="st11" points="859.8,246 931.2,242.8 937.5,382.6 866.1,385.8 		"/>
	</g>
	<g class="st0">
		<defs>
			<path id="SVGID_35_" d="M925.9,405.1l47.2,26c-26.1-40-30.3-88.8-20.4-143.2L943,279C920.1,317.4,916.5,359.9,925.9,405.1"/>
		</defs>
		<clipPath id="SVGID_36_">
			<use xlink:href="#SVGID_35_"  style="overflow:visible;"/>
		</clipPath>

			<linearGradient id="SVGID_37_" gradientUnits="userSpaceOnUse" x1="0" y1="498.5021" x2="1" y2="498.5021" gradientTransform="matrix(546.8937 -24.5106 -24.5106 -546.8937 12948.9277 272992.3438)">
			<stop  offset="0" style="stop-color:#443A97"/>
			<stop  offset="1" style="stop-color:#6399D1"/>
		</linearGradient>
		<polygon class="st12" points="909.7,279.3 973,276.5 979.9,430.9 916.6,433.7 		"/>
	</g>
	<g class="st0">
		<defs>
			<path id="SVGID_38_" d="M1395.3,20.5c-63.8,122.2-157.4,177.2-272.6,204.7c-7.5,73-96.5,111.4-154.7,74
				c5.3,111,41.7,186.2,119.1,165.3c-35.9-25.8-60.7-60.3-77.2-101.2c50.2,64.1,107.7,100,182,71c-57.9-16.5-103.6-42-134.6-78.4
				c51.6,43.8,169.1,70.6,227,31.4c-91.9-11.9-154.1-27.9-188.9-47.5c115.8,29.1,198.4,20.7,242.6-30.9
				c-93,11.7-163.9,11.2-212.9-1.3c130.6-0.2,251.1-24.7,276-112.9c0.4-1.4-1.1-2.7-2.4-1.9c-88.2,49.1-172.4,74-251,72.2
				c163.2-30.9,255.2-110.7,252.2-243.4c0-1.5-1.2-2.4-2.4-2.4C1396.6,19.2,1395.8,19.6,1395.3,20.5"/>
		</defs>
		<clipPath id="SVGID_39_">
			<use xlink:href="#SVGID_38_"  style="overflow:visible;"/>
		</clipPath>

			<linearGradient id="SVGID_40_" gradientUnits="userSpaceOnUse" x1="0" y1="498.4889" x2="1" y2="498.4889" gradientTransform="matrix(546.8937 -24.5106 -24.5106 -546.8937 12944.4863 272893.2813)">
			<stop  offset="0" style="stop-color:#443A97"/>
			<stop  offset="1" style="stop-color:#6399D1"/>
		</linearGradient>
		<polygon class="st13" points="947.1,20.1 1402,-0.3 1423.7,484.4 968.9,504.8 		"/>
	</g>
	<g class="st0">
		<defs>
			<path id="SVGID_41_" d="M149.1,117.5l-62.2,0.9c-16.9,0.9-29.3,12.5-38.8,25.2l-22.8,42.6c-10.6,21.8-4.3,38.1,8.5,54
				c14.8,17,33.3,28.1,52.4,40.6c2.2,1.4,2.4,4.6,0.4,6.3l-13.9,12C25.7,334,0,371.2,0,411.1v0.1c0,15.2,3.8,30.9,11.5,46.9
				C5.4,413.3,27.9,375.7,74.3,344c4,42.8,37.5,72.9,72.4,71.3c33.2-2.2,58.8-27.6,103.9-72.1c37.8-37.8,66.5-17.6,110.7,1
				c5.2,2.2,11.1,0.1,13.8-4.8l15.8-29c3.1-5.6,0.7-12.6-5.2-15.2l-33.2-15.2c-46.3-24.3-35.1-50.5,19.3-92.4
				c5.7,36.1,23.1,61.6,63.3,60.8l325.6-2.2l23.9-43.5c2.2-4.1-0.7-9-5.4-9L444,197.2c-39.1-0.2-53-18.5-51.9-56.3
				c-0.9-12-7.4-10.5-16.9-3.9c-55.1,51.2-91.5,99.5-80.2,140.4c-23.1,2.4-45,16.9-66.4,35.7l-39.9,38.6c-14,12.3-40.6,44.6-71,40
				c-16.9-2.6-29.5-22.5-30.4-58.6l150.1-116.9l-6.7-36.2c-0.8-4.4-6-6.4-9.5-3.6l-96.6,76.1c-22.8-12.1-43.5-23.7-54-33.3
				C57,206.7,48.7,193.3,46.3,179c-0.7-8,3.1-13.2,13.4-14.7h74.9l20.7-36.3c2.6-4.6-0.7-10.4-6-10.4
				C149.2,117.5,149.1,117.5,149.1,117.5"/>
		</defs>
		<clipPath id="SVGID_42_">
			<use xlink:href="#SVGID_41_"  style="overflow:visible;"/>
		</clipPath>

			<linearGradient id="SVGID_43_" gradientUnits="userSpaceOnUse" x1="0" y1="498.498" x2="1" y2="498.498" gradientTransform="matrix(802.7234 -6.1277 -6.1277 -802.7234 3066.5852 400446.75)">
			<stop  offset="0" style="stop-color:#4F4B9F"/>
			<stop  offset="1" style="stop-color:#66AEE0"/>
		</linearGradient>
		<polygon class="st14" points="-2.6,117.5 786.9,111.5 789.6,458.1 0,464.1 		"/>
	</g>
	<g class="st0">
		<defs>
			<path id="SVGID_44_" d="M109.8,45.9L82.3,75c3.4-0.2,8.5,0.9,11.7,3.9l27.1,24.2l35.6-34.2c-7.2-9.4-14.9-17.7-23.1-24.5
				c-3.2-2.6-7.1-3.9-11-3.9C117.9,40.4,113.3,42.3,109.8,45.9"/>
		</defs>
		<clipPath id="SVGID_45_">
			<use xlink:href="#SVGID_44_"  style="overflow:visible;"/>
		</clipPath>

			<linearGradient id="SVGID_46_" gradientUnits="userSpaceOnUse" x1="0" y1="498.501" x2="1" y2="498.501" gradientTransform="matrix(802.7234 -6.1277 -6.1277 -802.7234 3064.9382 400231)">
			<stop  offset="0" style="stop-color:#4F4B9F"/>
			<stop  offset="1" style="stop-color:#66AEE0"/>
		</linearGradient>
		<polygon class="st15" points="81.9,40.4 156.7,39.8 157.2,103 82.3,103.6 		"/>
	</g>
	<g class="st0">
		<defs>
			<path id="SVGID_47_" d="M422.6,298.8c2.8,1.6,4.2,3.8,2.4,7.3l-16.8,33c-2.4,4.8,1,10.4,6.4,10.4l148.3-0.6l18.6-40.5
				c2-4.4-1.2-9.5-6.1-9.5H422.6z"/>
		</defs>
		<clipPath id="SVGID_48_">
			<use xlink:href="#SVGID_47_"  style="overflow:visible;"/>
		</clipPath>

			<linearGradient id="SVGID_49_" gradientUnits="userSpaceOnUse" x1="0" y1="498.5006" x2="1" y2="498.5006" gradientTransform="matrix(802.7234 -6.1277 -6.1277 -802.7234 3066.8843 400485.9063)">
			<stop  offset="0" style="stop-color:#4F4B9F"/>
			<stop  offset="1" style="stop-color:#66AEE0"/>
		</linearGradient>
		<polygon class="st16" points="405.3,298.8 583.5,297.4 583.9,349.5 405.7,350.8 		"/>
	</g>
	<g class="st0">
		<text transform="matrix(1 0 0 1 460.1089 410.4776)" class="st17 st18 st19">Simorgh</text>
	</g>
	<g class="st0">
		<rect x="615.5" y="131.5" class="st20" width="197.5" height="81"/>
		<text transform="matrix(1 0 0 1 615.5 184.751)" class="st21 st18 st22">34000</text>
	</g>
</g>
</svg>
